<?xml version="1.0" encoding="UTF-8" standalone="no"?>
<!-- Created with Inkscape (http://www.inkscape.org/) -->

<svg
   xmlns:dc="http://purl.org/dc/elements/1.1/"
   xmlns:cc="http://creativecommons.org/ns#"
   xmlns:rdf="http://www.w3.org/1999/02/22-rdf-syntax-ns#"
   xmlns:svg="http://www.w3.org/2000/svg"
   xmlns="http://www.w3.org/2000/svg"
   xmlns:sodipodi="http://sodipodi.sourceforge.net/DTD/sodipodi-0.dtd"
   xmlns:inkscape="http://www.inkscape.org/namespaces/inkscape"
   id="svg2"
   version="1.1"
   inkscape:version="0.91 r13725"
   xml:space="preserve"
   width="250"
   height="250"
   viewBox="0 0 250 250"
   sodipodi:docname="Sever_JS.svg"><metadata
     id="metadata8"><rdf:RDF><cc:Work
         rdf:about=""><dc:format>image/svg+xml</dc:format><dc:type
           rdf:resource="http://purl.org/dc/dcmitype/StillImage" /><dc:title></dc:title></cc:Work></rdf:RDF></metadata><defs
     id="defs6"><clipPath
       clipPathUnits="userSpaceOnUse"
       id="clipPath16"><path
         d="M 0,560 960,560 960,0 0,0 0,560 Z"
         id="path18"
         inkscape:connector-curvature="0" /></clipPath></defs><sodipodi:namedview
     pagecolor="#ffffff"
     bordercolor="#666666"
     borderopacity="1"
     objecttolerance="10"
     gridtolerance="10"
     guidetolerance="10"
     inkscape:pageopacity="0"
     inkscape:pageshadow="2"
     inkscape:window-width="1920"
     inkscape:window-height="1050"
     id="namedview4"
     showgrid="false"
     inkscape:zoom="0.9609581169"
     inkscape:cx="241.100723"
     inkscape:cy="115.5391744"
     inkscape:window-x="0"
     inkscape:window-y="30"
     inkscape:window-maximized="1"
     inkscape:current-layer="g14" /><g
     id="g10"
     inkscape:groupmode="layer"
     inkscape:label="Sever_JS"
     transform="matrix(1.25,0,0,-1.25,0,250)"><g
       id="g12"><g
         id="g14"
         clip-path="url(#clipPath16)"><g
           id="g20"
           transform="translate(191.0441199,138.0693)"><path
             d="m 0,0 -90.111,-41.622 c -0.285,-0.131 -0.608,-0.13 -0.891,10e-4 l -91.016,42.199 91.212,40.88 c 0.275,0.123 0.592,0.123 0.867,0 L -0.006,1.151 C 0.24,1.04 0.365,0.847 0.368,0.578 0.369,0.308 0.246,0.113 0,0 m 2.344,6.395 -89.933,40.308 c -1.77,0.793 -3.8,0.792 -5.567,-0.001 L -184.935,5.568 c -1.978,-0.887 -3.215,-2.784 -3.229,-4.951 -0.014,-2.168 1.199,-4.08 3.166,-4.992 l 91.579,-42.46 c 0.909,-0.422 1.886,-0.633 2.863,-0.633 0.973,0 1.947,0.21 2.854,0.629 L 2.41,-5.217 C 4.709,-4.155 6.129,-1.922 6.114,0.611 6.1,3.143 4.655,5.359 2.344,6.395"
             style="fill:#000000;fill-opacity:1;fill-rule:nonzero;stroke:none"
             id="path22"
             inkscape:connector-curvature="0" /></g><g
           id="g24"
           transform="translate(100.0318438,71.6999)"><path
             d="M 0,0 -88.417,40.054 -90.788,34.819 -0.014,-6.302 91.88,34.813 89.533,40.059 0,0 Z"
             style="fill:#000000;fill-opacity:1;fill-rule:nonzero;stroke:none"
             id="path26"
             inkscape:connector-curvature="0" /></g><g
           id="g28"
           transform="translate(99.47344333,45.8298)"><path
             d="M 0,0 -88.417,40.054 -90.788,34.819 -0.014,-6.302 91.879,34.813 89.532,40.059 0,0 Z"
             style="fill:#000000;fill-opacity:1;fill-rule:nonzero;stroke:none"
             id="path30"
             inkscape:connector-curvature="0" /></g><g
           id="g32"
           transform="translate(99.47344333,20.702)"><path
             d="M 0,0 -88.417,40.054 -90.788,34.819 -0.014,-6.302 91.879,34.813 89.532,40.059 0,0 Z"
             style="fill:#000000;fill-opacity:1;fill-rule:nonzero;stroke:none"
             id="path34"
             inkscape:connector-curvature="0" /></g></g></g></g></svg>